<?xml version="1.0" encoding="UTF-8"?>
<svg id="Layer_2" data-name="Layer 2" xmlns="http://www.w3.org/2000/svg" viewBox="0 0 678.84 142.61">
  <g id="Layer_1-2" data-name="Layer 1">
    <g>
      <path d="m678.84,67.78c0-.76,0-1.54-.15-2.28-2.68-21.25-17.56-34.45-38.84-34.45-22.76,0-39.28,16.81-39.28,39.98s16.67,39.42,40.55,39.42c12.4,0,22.04-3.97,29.47-12.12,2.38-2.56,2.88-5.11,2.88-6.79,0-5.28-4.52-9.73-9.87-9.73-2.93,0-5.44,1.25-7.46,3.7-3.45,4.08-8.04,5.91-14.88,5.91-9.27,0-16.65-5.59-18.08-13.47h44.51c6.98,0,11.14-3.8,11.14-10.16Zm-22.19-5.63h-33.5c1.15-7.42,7.82-12.48,16.7-12.48s15.41,5.07,16.8,12.48Z"/>
      <path d="m555.83,31.99h0c-7.36,0-14.4,2.04-20.5,5.84-1.79-2.7-4.85-4.48-8.33-4.48-5.52,0-10,4.48-10,10v89.25c0,5.52,4.48,10,10,10s10-4.48,10-10v-27.98c5.44,3.02,11.55,4.7,17.91,4.85.22.01.45.02.68.02h.39c21.37-.16,38.63-17.68,38.46-39.05-.16-21.22-17.44-38.39-38.61-38.46Zm.33,57.51c-.11,0-.21,0-.32,0h0c-5.02,0-9.75-1.96-13.32-5.5-3.56-3.55-5.52-8.25-5.52-13.25,0-5,1.96-9.7,5.52-13.25,3.46-3.44,8.01-5.39,12.87-5.5.03,0,.05,0,.08,0,.08,0,.15,0,.22,0,10.28,0,18.68,8.32,18.76,18.62.08,10.22-8.08,18.63-18.28,18.9Z"/>
      <path d="m496.96,33.35c-5.52,0-10,4.48-10,10v26.77c0,5.01-1.95,9.72-5.49,13.26-3.54,3.54-8.25,5.5-13.26,5.5h0c-10.35,0-18.77-8.42-18.77-18.78v-26.75c0-5.52-4.48-10-10-10s-10,4.48-10,10v26.78c0,21.37,17.4,38.76,38.77,38.76h.01c6.66,0,13.07-1.67,18.74-4.82v28.54c0,5.52,4.48,10,10,10s10-4.48,10-10V43.35c0-5.52-4.48-10-10-10Z"/>
      <path d="m382.97,33.13c-.08,0-.16,0-.23,0-6.83.04-13.41,1.82-19.24,5.12V10c0-5.52-4.48-10-10-10s-10,4.48-10,10v61.68c0,.15,0,.3,0,.46v27.07c0,5.52,4.48,10,10,10s10-4.48,10-10v-27.37c.04-4.84,2.04-9.45,5.65-13,3.71-3.65,8.58-5.67,13.71-5.7.04,0,.08,0,.11,0,10.33,0,18.76,8.37,18.82,18.65v27.42c0,5.52,4.48,10,10,10s10-4.48,10-10v-27.48c-.13-21.33-17.52-38.59-38.82-38.59Z"/>
      <path d="m296.36,31.04c-22.76,0-39.28,16.81-39.28,39.98s16.67,39.42,40.55,39.42c12.4,0,22.04-3.97,29.47-12.12,2.38-2.56,2.88-5.11,2.88-6.79,0-5.28-4.52-9.73-9.87-9.73-2.93,0-5.44,1.25-7.46,3.69-3.45,4.09-8.04,5.91-14.88,5.91-9.27,0-16.65-5.59-18.08-13.47h44.51c6.98,0,11.15-3.8,11.15-10.16,0-.76,0-1.54-.15-2.28-2.68-21.25-17.56-34.45-38.84-34.45Zm16.8,31.1h-33.5c1.15-7.42,7.82-12.48,16.7-12.48s15.41,5.07,16.8,12.48Z"/>
      <path d="m212.34,31.99h0c-7.36,0-14.4,2.04-20.5,5.84-1.79-2.7-4.85-4.48-8.33-4.48-5.52,0-10,4.48-10,10v89.25c0,5.52,4.48,10,10,10s10-4.48,10-10v-27.98c5.44,3.02,11.55,4.7,17.91,4.85.22.01.45.02.68.02h.39c21.37-.16,38.62-17.68,38.46-39.05-.08-10.35-4.18-20.05-11.56-27.32-7.27-7.16-16.86-11.11-27.05-11.14Zm.34,57.51c-.11,0-.21,0-.32,0,0,0,0,0,0,0-5.02,0-9.75-1.96-13.32-5.5-3.56-3.55-5.52-8.25-5.52-13.25,0-5,1.96-9.7,5.52-13.25,3.46-3.44,8.01-5.39,12.87-5.5.03,0,.05,0,.08,0,.08,0,.15,0,.22,0,4.96,0,9.62,1.91,13.16,5.39,3.57,3.52,5.56,8.21,5.6,13.22.08,10.22-8.08,18.63-18.27,18.9Z"/>
      <path d="m153.47,33.35c-5.52,0-10,4.48-10,10v26.76c0,10.35-8.41,18.77-18.75,18.77h0c-10.35,0-18.77-8.42-18.77-18.78v-26.75c0-5.52-4.48-10-10-10s-10,4.48-10,10v26.78c0,21.37,17.4,38.76,38.77,38.76h.01c6.79,0,13.18-1.76,18.74-4.85v28.57c0,5.52,4.48,10,10,10s10-4.48,10-10V43.35c0-5.52-4.48-10-10-10Z"/>
      <path d="m39.24,33.13c-6.82.04-13.41,1.82-19.24,5.12V10C20,4.48,15.52,0,10,0S0,4.48,0,10v61.68c0,.15,0,.3,0,.45v27.07c0,5.52,4.48,10,10,10s10-4.48,10-10v-27.37c.04-4.85,2.04-9.46,5.65-13,3.72-3.65,8.58-5.67,13.71-5.7.04,0,.08,0,.11,0,10.33,0,18.76,8.37,18.82,18.65v27.42c0,5.52,4.48,10,10,10s10-4.48,10-10v-27.48c-.13-21.41-17.61-38.73-39.05-38.59Z"/>
    </g>
  </g>
</svg>