<?xml version="1.0" standalone="no"?>
<!DOCTYPE svg PUBLIC "-//W3C//DTD SVG 20010904//EN"
 "http://www.w3.org/TR/2001/REC-SVG-20010904/DTD/svg10.dtd">
<svg version="1.0" xmlns="http://www.w3.org/2000/svg"
 width="417pt" height="417pt" viewBox="0 0 417 417"
 preserveAspectRatio="xMidYMid meet">

<g transform="translate(0,417) scale(0.1,-0.1)"
fill="#1164b7" stroke="none">
<path d="M1877 4160 c-467 -49 -894 -247 -1229 -569 -344 -330 -552 -731 -624
-1201 -24 -157 -24 -453 0 -610 72 -469 280 -870 624 -1201 304 -293 666 -474
1101 -551 183 -32 491 -31 676 1 431 76 792 257 1097 550 198 190 319 357 437
603 145 299 203 554 204 893 2 346 -57 611 -203 913 -119 246 -240 413 -438
603 -304 292 -671 476 -1092 548 -144 25 -415 35 -553 21z m513 -95 c215 -36
404 -97 590 -190 618 -310 1028 -908 1099 -1604 52 -507 -112 -1045 -442
-1450 -268 -328 -649 -573 -1052 -675 -192 -48 -286 -60 -500 -60 -266 0 -464
35 -695 121 -673 251 -1154 833 -1281 1548 -33 186 -33 474 0 660 92 520 363
961 786 1280 257 193 605 334 920 374 50 6 104 13 120 15 63 9 364 -4 455 -19z"/>
<path d="M1980 4005 c-8 -2 -54 -7 -102 -10 l-88 -7 0 -127 0 -128 -131 -36
c-73 -20 -135 -34 -139 -32 -4 3 -34 51 -65 107 -32 57 -59 104 -60 106 -5 6
-186 -79 -269 -127 -87 -50 -246 -159 -246 -169 0 -3 27 -51 60 -108 33 -56
60 -105 60 -107 0 -7 -190 -197 -197 -197 -2 0 -52 28 -110 62 l-105 61 -20
-24 c-83 -105 -201 -307 -257 -441 -23 -54 -32 -44 102 -122 71 -42 97 -62 93
-73 -3 -8 -15 -51 -27 -96 -11 -45 -25 -99 -30 -119 l-10 -38 -128 0 -129 0
-9 -87 c-10 -113 -10 -303 0 -415 l9 -88 127 0 128 0 32 -117 c18 -65 34 -126
37 -135 4 -13 -21 -32 -103 -81 -85 -50 -107 -68 -105 -83 11 -62 183 -362
271 -473 l19 -25 106 62 c58 34 108 62 110 62 5 0 196 -192 196 -197 0 -2 -28
-51 -62 -109 l-62 -106 25 -19 c107 -85 391 -248 474 -273 17 -5 29 10 78 99
32 58 62 107 66 110 5 2 48 -6 97 -20 49 -13 108 -29 132 -35 l42 -11 0 -128
0 -129 88 -9 c112 -10 302 -10 415 0 l87 9 0 129 0 128 43 11 c23 6 82 22 131
35 49 14 92 22 97 20 4 -3 34 -52 66 -110 49 -89 61 -104 78 -99 83 25 367
188 474 273 l25 19 -62 106 c-34 58 -62 108 -62 112 0 8 186 194 194 194 4 0
54 -28 112 -62 l106 -62 19 25 c88 111 260 411 271 473 2 15 -20 33 -105 83
-82 49 -107 68 -103 81 3 9 19 70 37 135 l32 117 128 0 127 0 9 88 c4 48 8
141 8 207 0 66 -4 159 -8 208 l-9 87 -127 0 -128 0 -32 118 c-18 64 -34 125
-37 134 -4 13 21 32 103 81 85 50 107 68 105 83 -11 62 -183 362 -270 473
l-20 24 -105 -61 c-58 -34 -108 -62 -111 -62 -5 0 -196 191 -196 197 0 2 28
51 62 109 l62 106 -25 19 c-107 85 -391 248 -474 273 -17 5 -29 -10 -78 -99
-32 -58 -62 -107 -66 -110 -5 -2 -50 7 -102 21 -52 13 -111 29 -131 35 l-38
10 0 128 0 128 -57 7 c-76 8 -324 16 -343 11z m228 -306 l3 -127 63 -7 c85 -9
294 -65 382 -102 l70 -31 52 92 c82 146 65 138 168 79 49 -29 93 -58 98 -66 7
-11 -7 -44 -51 -118 l-60 -103 51 -40 c72 -56 218 -200 278 -273 27 -35 53
-63 58 -63 5 0 52 25 105 56 53 30 102 53 109 51 12 -5 97 -141 111 -179 5
-13 -17 -30 -99 -78 -58 -34 -106 -65 -106 -69 0 -4 12 -36 26 -72 35 -86 91
-296 99 -375 l7 -63 127 -3 126 -3 0 -120 0 -120 -126 -3 -127 -3 -7 -63 c-8
-79 -64 -289 -99 -375 -14 -36 -26 -68 -26 -72 0 -4 48 -35 106 -69 82 -48
104 -65 99 -78 -15 -39 -99 -174 -111 -179 -8 -3 -60 22 -116 54 l-102 60 -40
-51 c-59 -77 -192 -211 -272 -275 l-71 -57 60 -103 c44 -74 58 -107 51 -118
-5 -8 -49 -37 -98 -66 -103 -59 -86 -67 -168 79 l-52 92 -67 -29 c-88 -38
-301 -95 -383 -104 l-65 -7 -3 -127 -3 -126 -120 0 -120 0 -3 126 -3 126 -62
7 c-79 9 -268 59 -370 98 -44 17 -83 26 -87 22 -5 -5 -33 -52 -63 -104 -35
-59 -61 -95 -71 -94 -23 2 -177 95 -183 110 -3 8 22 60 54 116 l60 102 -51 40
c-72 56 -218 200 -278 274 -27 34 -53 62 -58 62 -5 0 -52 -25 -105 -56 -53
-30 -102 -53 -109 -51 -12 5 -97 141 -111 179 -5 13 17 30 99 78 58 34 106 65
106 69 0 4 -12 36 -26 71 -36 89 -91 294 -99 373 l-7 66 -127 3 -126 3 0 120
0 120 126 3 126 3 7 62 c9 84 62 284 97 370 16 38 29 73 29 77 0 5 -48 36
-106 70 -82 48 -104 65 -99 78 14 38 99 174 111 179 7 2 59 -22 115 -55 l102
-59 58 71 c65 81 200 215 275 273 l51 39 -59 103 c-33 56 -57 108 -55 115 6
15 161 108 183 110 10 1 36 -35 71 -94 30 -52 58 -99 63 -104 4 -4 43 5 87 22
102 39 291 89 371 98 l62 7 0 122 c0 67 3 125 7 129 4 3 59 5 122 4 l116 -3 3
-126z"/>
<path d="M1876 3441 c-4 -6 -18 -8 -33 -5 -19 5 -24 3 -21 -7 3 -8 19 -14 37
-14 35 -1 49 11 33 27 -6 6 -12 6 -16 -1z"/>
<path d="M2112 3433 c2 -10 10 -18 18 -18 8 0 16 8 18 18 2 12 -3 17 -18 17
-15 0 -20 -5 -18 -17z"/>
<path d="M1964 3355 c-18 -14 -18 -16 -1 -29 28 -22 20 -36 -23 -36 -34 0 -42
4 -55 30 -18 35 -56 40 -95 13 -37 -25 -49 -45 -50 -76 0 -23 5 -29 30 -34 25
-5 28 -8 18 -20 -16 -20 -63 -43 -88 -43 -11 0 -29 9 -41 21 -17 17 -19 28
-14 60 7 42 -8 56 -19 17 -14 -56 -2 -121 28 -140 19 -13 86 -9 115 7 69 35
107 125 56 133 -47 7 -51 13 -27 33 28 22 50 14 71 -25 19 -34 39 -39 90 -21
31 11 48 12 62 5 10 -6 34 -11 51 -11 65 0 124 -8 178 -23 67 -20 144 -21 159
-3 22 27 25 76 6 97 -26 29 -91 27 -137 -5 -43 -29 -54 -31 -62 -9 -6 15 -8
15 -30 1 -21 -14 -26 -14 -46 0 -17 12 -27 13 -46 4 -41 -18 -71 8 -43 36 30
30 -49 47 -87 18z m412 -82 c17 -17 16 -18 -19 -21 -20 -2 -45 1 -54 7 -16 9
-16 11 7 20 36 14 46 13 66 -6z"/>
<path d="M2693 3298 c-35 -47 -95 -161 -99 -190 -5 -30 -2 -38 21 -56 15 -12
40 -22 56 -22 15 0 32 -6 36 -14 4 -8 26 -24 48 -37 22 -13 44 -29 48 -36 4
-7 15 -13 23 -13 8 0 19 -11 24 -25 5 -14 17 -28 25 -31 8 -4 15 -12 15 -19 0
-22 48 -65 73 -65 54 0 111 111 60 118 -18 3 -22 -2 -25 -30 -4 -43 -26 -43
-53 -1 -11 17 -28 34 -38 36 -10 3 -21 15 -24 26 -3 12 -14 21 -24 21 -11 0
-19 7 -19 15 0 8 -11 17 -24 21 -35 8 -53 33 -59 79 -3 22 -8 50 -12 62 -7 22
-6 22 80 20 59 -1 89 2 92 9 5 15 -214 31 -229 16 -6 -6 -4 -22 6 -47 21 -49
20 -65 -3 -65 -22 0 -51 35 -51 60 0 9 20 49 45 90 24 41 45 78 45 83 0 12
-27 8 -37 -5z"/>
<path d="M1377 3254 c-9 -10 2 -24 19 -24 8 0 14 7 14 15 0 15 -21 21 -33 9z"/>
<path d="M1420 3235 c0 -8 7 -15 15 -15 8 0 15 7 15 15 0 8 -7 15 -15 15 -8 0
-15 -7 -15 -15z"/>
<path d="M2481 3214 c-13 -17 -21 -41 -21 -65 0 -38 1 -39 35 -39 44 0 68 32
63 87 -3 33 -7 38 -29 41 -19 2 -33 -4 -48 -24z m39 -39 c10 -12 10 -15 -3
-15 -8 0 -17 7 -21 15 -3 8 -2 15 3 15 5 0 14 -7 21 -15z"/>
<path d="M1375 3210 c-8 -14 3 -30 21 -30 8 0 14 9 14 20 0 21 -24 28 -35 10z"/>
<path d="M1530 3207 c0 -8 7 -20 15 -27 21 -17 -1 -33 -26 -19 -25 13 -29 11
-29 -10 0 -26 -22 -41 -48 -34 -17 4 -22 1 -22 -15 0 -31 -36 -51 -76 -45 -29
5 -34 3 -34 -14 0 -12 12 -25 33 -34 46 -20 47 -53 2 -111 -19 -26 -35 -49
-35 -52 0 -15 42 -3 67 18 25 22 28 31 28 83 0 50 4 64 27 91 15 18 31 32 37
32 6 0 19 8 29 18 9 9 30 22 46 27 43 15 54 39 36 73 -17 29 -50 42 -50 19z"/>
<path d="M2808 3213 c12 -2 32 -2 45 0 12 2 2 4 -23 4 -25 0 -35 -2 -22 -4z"/>
<path d="M2027 3118 c-43 -26 -60 -65 -33 -80 10 -5 32 -23 50 -39 19 -16 39
-29 45 -29 7 0 37 21 66 47 61 52 61 65 1 102 -43 27 -81 26 -129 -1z"/>
<path d="M2890 3040 c0 -11 7 -20 15 -20 8 0 15 9 15 20 0 11 -7 20 -15 20 -8
0 -15 -9 -15 -20z"/>
<path d="M2930 3025 c0 -26 4 -35 16 -35 11 0 15 6 11 20 -3 11 -1 20 4 20 5
0 9 7 9 15 0 8 -9 15 -20 15 -16 0 -20 -7 -20 -35z"/>
<path d="M1863 3043 c-24 -9 -13 -25 65 -102 79 -76 105 -118 147 -235 l18
-49 22 71 c36 113 93 194 184 264 41 31 37 58 -8 58 -52 0 -85 -19 -142 -82
l-57 -62 -56 55 c-74 71 -133 99 -173 82z"/>
<path d="M1180 3014 c0 -9 14 -21 30 -27 37 -14 38 -26 5 -57 l-25 -24 -29 28
c-52 50 -82 6 -45 -66 16 -31 16 -31 -41 -115 -61 -89 -84 -108 -128 -105 -34
3 -32 -13 4 -41 51 -37 110 4 176 121 21 37 63 95 95 129 48 52 58 69 58 98 0
22 -8 43 -20 55 -25 25 -80 27 -80 4z m-20 -124 c0 -5 -4 -10 -9 -10 -6 0 -13
5 -16 10 -3 6 1 10 9 10 9 0 16 -4 16 -10z"/>
<path d="M1720 2998 c0 -6 13 -32 29 -57 81 -127 141 -297 170 -481 18 -113
22 -324 13 -680 -4 -190 -4 -353 0 -362 7 -14 21 -18 57 -18 l48 0 6 593 5
592 -25 75 c-48 146 -107 233 -206 306 -58 43 -97 56 -97 32z"/>
<path d="M2371 2969 c-77 -51 -134 -116 -172 -196 -56 -118 -58 -144 -59 -773
0 -316 0 -581 0 -588 0 -9 16 -12 58 -10 l57 3 -3 435 c-4 486 2 588 48 771
33 128 61 199 127 316 56 98 43 108 -56 42z"/>
<path d="M3070 2960 c0 -13 7 -20 19 -20 14 0 18 5 14 20 -3 11 -12 20 -19 20
-8 0 -14 -9 -14 -20z"/>
<path d="M980 2855 c0 -8 9 -15 20 -15 11 0 20 7 20 15 0 8 -9 15 -20 15 -11
0 -20 -7 -20 -15z"/>
<path d="M3122 2863 c-16 -6 -122 -131 -122 -144 0 -14 23 -10 45 9 22 18 115
130 115 137 0 6 -21 5 -38 -2z"/>
<path d="M1221 2767 c-6 -15 -15 -27 -20 -27 -6 0 -8 -7 -5 -15 9 -23 21 -18
38 17 11 21 13 35 7 41 -7 7 -14 1 -20 -16z"/>
<path d="M3142 2747 c-8 -10 -8 -24 -1 -51 16 -56 -1 -67 -45 -28 -39 34 -66
33 -66 -3 0 -23 19 -44 58 -65 31 -15 75 2 91 36 29 64 -1 154 -37 111z"/>
<path d="M1403 2723 c-19 -7 -16 -31 10 -72 21 -35 22 -43 23 -330 0 -241 3
-296 14 -299 8 -3 47 -22 87 -43 40 -22 77 -39 83 -39 6 0 10 61 10 174 0 153
2 176 18 196 16 19 22 21 40 11 26 -14 25 3 26 -258 l1 -212 31 -33 c17 -18
41 -50 53 -70 13 -21 27 -38 32 -38 18 0 17 663 -2 757 -23 117 -120 215 -244
248 -56 14 -156 19 -182 8z"/>
<path d="M2543 2700 c-77 -39 -143 -109 -174 -186 -23 -58 -24 -66 -27 -426
-3 -325 -1 -368 12 -368 9 0 22 13 30 28 8 16 31 48 51 72 l36 43 -1 211 c-1
116 1 219 5 228 12 30 38 31 62 3 22 -25 23 -34 23 -191 0 -128 3 -164 13
-164 7 0 34 13 60 30 26 16 58 32 72 36 13 3 28 11 34 18 5 6 11 136 13 301 3
282 4 291 26 322 44 62 30 73 -92 73 -72 0 -91 -4 -143 -30z"/>
<path d="M2876 2495 c-14 -15 -29 -49 -35 -76 -13 -60 -14 -329 -1 -349 10
-17 95 -20 110 -4 4 5 10 108 12 229 l3 220 -32 3 c-25 3 -39 -3 -57 -23z"/>
<path d="M1229 2496 c-4 -4 -3 -395 0 -438 2 -14 73 -21 97 -9 24 11 24 11 24
175 0 175 -6 205 -48 249 -23 24 -60 35 -73 23z"/>
<path d="M2796 1965 c-140 -36 -265 -135 -365 -290 -73 -112 -102 -176 -104
-230 l-2 -40 55 0 55 0 50 101 c77 154 138 228 244 296 50 31 98 37 108 12 4
-12 -23 -43 -95 -111 -106 -98 -202 -232 -202 -280 0 -21 4 -23 54 -23 30 0
62 3 70 6 9 4 34 37 56 74 98 167 313 295 493 292 70 -2 81 6 55 40 -23 30
-160 117 -217 139 -73 27 -179 33 -255 14z"/>
<path d="M1147 1946 c-75 -27 -143 -68 -199 -119 -58 -53 -52 -63 45 -69 149
-10 281 -71 392 -183 33 -33 75 -85 92 -117 29 -50 36 -57 72 -63 58 -10 101
2 101 27 0 63 -131 239 -218 292 -32 19 -67 45 -77 56 -20 22 -20 22 3 41 22
17 26 17 60 3 109 -45 261 -220 308 -354 l19 -55 64 -3 64 -3 -6 38 c-10 58
-89 210 -152 288 -73 91 -141 147 -243 197 -75 38 -92 42 -170 45 -73 3 -98 0
-155 -21z"/>
<path d="M3165 1693 c-110 -23 -216 -84 -312 -178 -47 -46 -90 -98 -99 -120
l-16 -39 38 -33 c22 -18 47 -33 56 -33 9 0 31 21 49 46 43 63 127 145 180 176
80 47 181 71 270 65 44 -3 81 -1 84 3 3 5 -7 32 -22 59 -41 74 -86 85 -228 54z"/>
<path d="M837 1670 c-30 -24 -57 -69 -57 -96 0 -14 8 -16 59 -10 76 9 185 -14
271 -56 77 -37 187 -142 216 -205 10 -23 22 -43 26 -43 11 0 78 61 89 82 15
29 -27 93 -114 174 -128 119 -217 159 -382 171 -72 5 -83 3 -108 -17z"/>
<path d="M2029 1317 c-26 -20 -39 -53 -39 -97 0 -61 41 -100 105 -100 39 0 52
5 77 30 28 28 30 35 26 82 -7 69 -39 98 -106 98 -26 0 -54 -6 -63 -13z"/>
<path d="M2244 1306 c-3 -8 -4 -35 -2 -62 l3 -49 165 -5 c165 -5 189 -10 233
-48 9 -8 17 -21 17 -29 0 -12 -33 -14 -192 -13 -106 1 -200 1 -209 1 -23 -1
-29 -44 -22 -145 l6 -86 303 0 c355 0 340 -5 331 96 -11 142 -119 288 -247
333 -52 19 -379 24 -386 7z"/>
<path d="M1595 1301 c-87 -22 -182 -94 -229 -174 -42 -72 -73 -235 -48 -251 4
-2 143 -6 309 -7 235 -2 305 0 317 10 13 11 16 34 16 107 0 92 -1 95 -26 104
-14 6 -108 10 -209 10 -200 0 -220 6 -169 46 42 34 121 47 263 43 l126 -4 3
63 3 62 -163 -1 c-90 -1 -176 -4 -193 -8z"/>
<path d="M2069 978 c-7 -12 -36 -55 -65 -95 -30 -39 -54 -79 -54 -88 0 -9 18
-24 44 -34 24 -11 53 -33 65 -50 12 -17 28 -31 35 -31 7 0 27 18 44 39 24 30
43 42 74 48 28 6 43 14 42 24 -2 22 -145 209 -160 209 -7 0 -19 -10 -25 -22z"/>
</g>
</svg>
